PathFileType	4	(X/Y/Z)	D:\luciana\static.trc
DataRate	CameraRate	NumFrames	NumMarkers	Units	OrigDataRate	OrigDataStartFrame	OrigNumFrames
250.00	250.00	8	21	mm	250.00	1	922
Frame#	Time	pelvisR			PelvisL			Trunk1			Trunk2			Trunk3			C7			shoulder			upperArm1			upperArm2			upperArm3			elbow			forearm1			forearm2			forearm3			wrist1			wrist2			wrist3			wristOut			wristIn			elbowInt			hand			
		X1	Y1	Z1	X2	Y2	Z2	X3	Y3	Z3	X4	Y4	Z4	X5	Y5	Z5	X6	Y6	Z6	X7	Y7	Z7	X8	Y8	Z8	X9	Y9	Z9	X10	Y10	Z10	X11	Y11	Z11	X12	Y12	Z12	X13	Y13	Z13	X14	Y14	Z14	X15	Y15	Z15	X16	Y16	Z16	X17	Y17	Z17	X18	Y18	Z18	X19	Y19	Z19	X20	Y20	Z20	X21	Y21	Z21	

0	0.000000	1409.877300	637.761354	656.124294	1744.284868	653.464913	651.301444	1516.589403	872.559905	563.480437	1579.904437	819.400370	561.297953	1491.493344	779.823422	563.241601	1581.815004	1132.023573	743.923962	1752.334237	1067.408204	677.505374	1861.926794	931.170523	774.026275	1903.457880	942.004263	710.910559	1851.890683	916.469395	651.923835	1916.093826	797.854900	702.339172	1921.725869	701.370060	717.782795	1935.808063	731.569350	642.853796	1872.018099	766.229928	626.258671	1836.202264	673.945904	543.947995	1868.737102	614.092171	584.916830	1774.974346	693.524003	580.344617	1822.846651	603.359520	562.653184	1767.504692	646.109402	562.849522	1857.714653	762.696385	766.271591	1791.557193	610.582232	502.629519	
1	0.004000	1409.889221	637.740552	656.132936	1744.294882	653.413713	651.253879	1516.577244	872.599423	563.475728	1579.903960	819.415927	561.276793	1491.474628	779.826403	563.242614	1581.824899	1132.026434	743.920803	1752.337337	1067.407012	677.508712	1861.929655	931.177735	774.020076	1903.453946	942.016602	710.904956	1851.900578	916.491985	651.900649	1916.083217	797.855079	702.328503	1921.731830	701.368928	717.777193	1935.801387	731.585979	642.847538	1872.016072	766.235709	626.250744	1836.215973	673.953176	543.942869	1868.739724	614.096880	584.934294	1774.967670	693.526328	580.334604	1822.834849	603.362501	562.664986	1767.501354	646.112323	562.870085	1857.737780	762.735486	766.290545	1791.584611	610.574901	502.604067	
2	0.008000	1409.899950	637.753785	656.090677	1744.299889	653.419375	651.269197	1516.580939	872.599304	563.451409	1579.896331	819.432259	561.255693	1491.453886	779.821098	563.225448	1581.814766	1132.040024	743.910670	1752.326488	1067.418575	677.488446	1861.927509	931.189060	773.999631	1903.450966	942.029119	710.897565	1851.902962	916.503847	651.887894	1916.080117	797.851801	702.308536	1921.728373	701.378822	717.757583	1935.784698	731.589913	642.841518	1871.999025	766.238689	626.239538	1836.214900	673.961759	543.928266	1868.733764	614.107549	584.940612	1774.968386	693.527520	580.327868	1822.825551	603.365123	562.683105	1767.484426	646.124184	562.854052	1857.742786	762.772679	766.289473	1791.577339	610.572219	502.603531	
3	0.012000	1409.910560	637.742341	656.084418	1744.303465	653.404891	651.276588	1516.557693	872.588515	563.440263	1579.891205	819.449842	561.238766	1491.447687	779.833317	563.201964	1581.813574	1132.046342	743.894875	1752.311826	1067.433953	677.465796	1861.933351	931.212902	773.990154	1903.447390	942.042232	710.878015	1851.898313	916.512251	651.878297	1916.081905	797.865629	702.276886	1921.737075	701.397896	717.749596	1935.781717	731.614411	642.839432	1871.997714	766.257644	626.228809	1836.219788	673.969746	543.921113	1868.731618	614.111185	584.915400	1774.971366	693.536699	580.322266	1822.826266	603.385687	562.669754	1767.479181	646.118462	562.865973	1857.743025	762.784123	766.279578	1791.579723	610.574126	502.591610	
4	0.016000	1409.909964	637.724400	656.116486	1744.298816	653.426886	651.288390	1516.537189	872.606754	563.451290	1579.879999	819.461823	561.234117	1491.437078	779.852271	563.179493	1581.825137	1132.060289	743.888855	1752.316236	1067.442656	677.456677	1861.929178	931.225657	773.971558	1903.443813	942.055762	710.856795	1851.890802	916.525960	651.866078	1916.088343	797.885180	702.269018	1921.742082	701.414406	717.746496	1935.792923	731.625080	642.809749	1871.999979	766.272426	626.217961	1836.214662	673.977435	543.920755	1868.723035	614.120722	584.906340	1774.979115	693.547964	580.324054	1822.816491	603.371859	562.674761	1767.476082	646.119654	562.906325	1857.743382	762.786508	766.265631	1791.549444	610.579371	502.588212	
5	0.020000	1409.898520	637.733579	656.127036	1744.293928	653.438389	651.271701	1516.538739	872.618318	563.430727	1579.882622	819.474578	561.211109	1491.441607	779.861212	563.156724	1581.802011	1132.065296	743.879676	1752.314806	1067.451239	677.456260	1861.923933	931.235135	773.950994	1903.443933	942.067027	710.838854	1851.877332	916.534603	651.845872	1916.091442	797.896743	702.254772	1922.761559	701.476514	717.571855	1935.803294	731.634259	642.791867	1871.999741	766.280830	626.204610	1836.207867	673.982084	543.921947	1868.713379	614.132404	584.896564	1774.981737	693.551123	580.316424	1822.843075	603.381217	562.659740	1767.471790	646.143854	562.905908	1857.740641	762.803733	766.250670	1791.547179	610.575795	502.597868	
6	0.024000	1409.889579	637.731612	656.117737	1744.294047	653.421879	651.270449	1516.529799	872.635722	563.413858	1579.869270	819.479406	561.192155	1491.451025	779.868364	563.137412	1581.778646	1132.074594	743.862212	1752.307177	1067.456961	677.444637	1861.921906	931.251049	773.945212	1903.440118	942.078948	710.820138	1851.874948	916.539431	651.826024	1916.086912	797.901630	702.237964	1924.032688	701.539874	717.353880	1935.809493	731.649756	642.767727	1871.995449	766.281009	626.191735	1836.199641	673.986852	543.914020	1868.719816	614.127934	584.893107	1774.973035	693.552554	580.310464	1822.869301	603.399873	562.641799	1767.500520	646.201849	562.970161	1857.739449	762.817264	766.239643	1791.555405	610.592961	502.584517	
7	0.028000	1409.884572	637.723863	656.130791	1744.294882	653.422952	651.249826	1516.549826	872.632563	563.388228	1579.864979	819.479883	561.175883	1491.459370	779.867887	563.124478	1581.756353	1132.074833	743.847132	1752.293587	1067.458510	677.423537	1861.920118	931.257367	773.933649	1903.435946	942.088604	710.803211	1851.867914	916.547716	651.807129	1916.082978	797.911525	702.233434	1922.314882	701.480031	717.618406	1935.804009	731.660485	642.784297	1871.986985	766.279697	626.192093	1836.197257	673.989534	543.894529	1868.737459	614.139557	584.878087	1774.964929	693.549812	580.299020	1822.852731	603.397548	562.616229	1767.526627	646.237731	563.006639	1857.738614	762.826622	766.224265	1791.560769	610.597551	502.588451	
